<svg width="240" height="60" viewBox="0 0 240 60" fill="none" xmlns="http://www.w3.org/2000/svg">
  <path d="M20 10L30 50H40L50 10H40L35 35L30 10H20Z" fill="#6366F1"/>
  <path d="M55 10V50H65V35H70C75 35 80 30 80 25V20C80 15 75 10 70 10H55ZM65 20H70V25H65V20Z" fill="#6366F1"/>
  <path d="M85 10V50H95V10H85Z" fill="#8B5CF6"/>
  <path d="M100 10V50H110V35H120V50H130V10H120V25H110V10H100Z" fill="#8B5CF6"/>
  <path d="M135 10V50H145V40H150L155 50H165L158 35C163 33 165 28 165 25V20C165 15 160 10 155 10H135ZM145 20H155V25H145V20Z" fill="#D946EF"/>
  <path d="M170 10V50H180V35H185C190 35 195 30 195 25V20C195 15 190 10 185 10H170ZM180 20H185V25H180V20Z" fill="#D946EF"/>
  <path d="M200 10V50H210V35H215L220 50H230L224 33C228 31 230 28 230 23V20C230 15 225 10 220 10H200ZM210 20H220V25H210V20Z" fill="#EC4899"/>
  <path d="M235 10V50H245V10H235Z" fill="#EC4899"/>
</svg> 